<?xml version="1.0" encoding="UTF-8" standalone="no"?>
<!-- Created with Inkscape (http://www.inkscape.org/) -->
<svg
   xmlns:svg="http://www.w3.org/2000/svg"
   xmlns="http://www.w3.org/2000/svg"
   version="1.0"
   width="744.09448"
   height="1052.3622"
   id="svg4001">
  <defs
     id="defs4003" />
  <g
     id="layer1">
    <g
       transform="translate(10.101526,34.345186)"
       id="g4046">
      <g
         transform="matrix(11.966857,0,0,-11.966857,449.66858,469.47851)"
         id="g2694"
         style="display:inline">
        <path
           d="M 0,0 C -2.52,-1.386 -3.438,-4.55 -2.055,-7.067 C -0.669,-9.587 2.495,-10.508 5.014,-9.124 C 7.534,-7.74 8.455,-4.574 7.07,-2.056 C 5.686,0.463 2.518,1.383 0,0"
           id="path2696"
           style="fill:#4d297f;fill-opacity:1;fill-rule:nonzero;stroke:none" />
      </g>
      <g
         transform="matrix(11.966857,0,0,-11.966857,247.86782,519.21516)"
         id="g2698"
         style="display:inline">
        <path
           d="M 0,0 C 1.182,-0.025 2.314,0.184 3.357,0.58 C 6.767,-6.478 14.891,-10.208 22.631,-7.87 C 26.536,-6.693 29.667,-4.173 31.676,-0.972 L 33.791,-2.109 C 31.138,-6.417 26.957,-9.81 21.73,-11.386 C 10.957,-14.639 -0.383,-9.005 -4.428,1.288 C -3.133,0.5 -1.622,0.034 0,0"
           id="path2700"
           style="fill:#4d297f;fill-opacity:1;fill-rule:nonzero;stroke:none" />
      </g>
      <g
         transform="matrix(11.966857,0,0,-11.966857,551.51486,838.98997)"
         id="g2702"
         style="display:inline">
        <path
           d="M 0,0 C -1.181,0.026 -2.314,-0.182 -3.355,-0.579 C -6.764,6.477 -14.89,10.207 -22.63,7.87 C -26.534,6.693 -29.663,4.173 -31.673,0.971 L -33.79,2.107 C -31.136,6.415 -26.956,9.81 -21.728,11.386 C -10.956,14.638 0.386,9.006 4.428,-1.289 C 3.134,-0.502 1.624,-0.035 0,0"
           id="path2704"
           style="fill:#4d297f;fill-opacity:1;fill-rule:nonzero;stroke:none" />
      </g>
      <g
         transform="matrix(11.966857,0,0,-11.966857,412.95541,288.99436)"
         id="g2706"
         style="display:inline">
        <path
           d="M 0,0 C 2.458,-1.492 5.658,-0.705 7.149,1.752 C 8.639,4.212 7.853,7.412 5.394,8.902 C 2.937,10.393 -0.265,9.604 -1.753,7.148 C -3.243,4.688 -2.458,1.489 0,0"
           id="path2708"
           style="fill:#f4bb3a;fill-opacity:1;fill-rule:nonzero;stroke:none" />
      </g>
      <g
         transform="matrix(11.966857,0,0,-11.966857,556.94417,438.91868)"
         id="g2710"
         style="display:inline">
        <path
           d="M 0,0 C -0.57,1.037 -1.317,1.914 -2.181,2.617 C 2.226,9.097 1.392,18 -4.502,23.536 C -7.473,26.328 -11.22,27.778 -14.998,27.918 L -15.073,30.318 C -10.014,30.176 -4.983,28.25 -1.005,24.513 C 7.199,16.808 7.992,4.171 1.096,-4.479 C 1.129,-2.963 0.78,-1.421 0,0"
           id="path2712"
           style="fill:#f4bb3a;fill-opacity:1;fill-rule:nonzero;stroke:none" />
      </g>
      <g
         transform="matrix(9.5734859,0,0,9.5734859,-1575.2298,-3208.9251)"
         id="g3991"
         style="display:inline">
        <g
           transform="matrix(1.25,0,0,-1.25,193.26567,378.1295)"
           id="g3993">
          <path
             d="M 0,0 C 0.062,2.874 -2.22,5.253 -5.093,5.315 C -7.967,5.375 -10.346,3.095 -10.407,0.221 C -10.468,-2.653 -8.187,-5.034 -5.313,-5.093 C -2.439,-5.155 -0.061,-2.874 0,0"
             id="path3995"
             style="fill:#9d66ab;fill-opacity:1;fill-rule:nonzero;stroke:none" />
        </g>
        <g
           transform="matrix(1.25,0,0,-1.25,199.30754,357.27625)"
           id="g3997">
          <path
             d="M 0,0 C -0.613,-1.01 -0.999,-2.095 -1.176,-3.196 C -8.992,-2.622 -16.285,-7.793 -18.133,-15.663 C -19.064,-19.635 -18.447,-23.603 -16.679,-26.946 L -18.723,-28.211 C -21.128,-23.758 -21.975,-18.44 -20.727,-13.125 C -18.155,-2.169 -7.607,4.835 3.331,3.19 C 2,2.464 0.839,1.389 0,0"
             id="path3999"
             style="fill:#9d66ab;fill-opacity:1;fill-rule:nonzero;stroke:none" />
        </g>
      </g>
    </g>
  </g>
</svg>
